<svg xmlns="http://www.w3.org/2000/svg" width="28.015" height="23.047" viewBox="0 0 28.015 23.047">
  <g id="합치기_7" data-name="합치기 7" fill="none" stroke-linecap="round" stroke-linejoin="round">
    <path d="M0,11.524C0,5.159,6.265,0,13.993,0S27.986,5.159,27.986,11.524a9.9,9.9,0,0,1-1.635,5.41l1.664,5.731-5.95-1.727a16.052,16.052,0,0,1-8.072,2.11C6.265,23.047,0,17.888,0,11.524Z" stroke="none"/>
    <path d="M 13.99298000335693 21.04727554321289 C 16.55186080932617 21.04727554321289 18.99502944946289 20.41184425354004 21.05837059020996 19.20967483520508 C 21.3669490814209 19.0298900604248 21.71475219726563 18.93775749206543 22.06527900695801 18.93775749206543 C 22.2521858215332 18.93775749206543 22.43990135192871 18.96396636962891 22.62277984619141 19.01705551147461 L 25.08078193664551 19.7306022644043 L 24.43074035644531 17.49132537841797 C 24.26902961730957 16.93425559997559 24.35713958740234 16.33441543579102 24.6722297668457 15.84737491607666 C 25.54413986206055 14.49968528747559 25.98623085021973 13.04509449005127 25.98623085021973 11.52400493621826 C 25.98623085021973 9.054305076599121 24.78943061828613 6.70860481262207 22.61630058288574 4.918994903564453 C 20.33057022094727 3.036654949188232 17.26807975769043 2.000005006790161 13.99298000335693 2.000005006790161 C 10.7180004119873 2.000005006790161 7.655600070953369 3.036654949188232 5.36991024017334 4.918984889984131 C 3.196790218353271 6.70860481262207 2.000000238418579 9.054314613342285 2.000000238418579 11.52400493621826 C 2.000000238418579 13.99336528778076 3.196780204772949 16.33883476257324 5.369870185852051 18.12835502624512 C 7.655620098114014 20.01064491271973 10.71802997589111 21.04727554321289 13.99298000335693 21.04727554321289 M 13.99298000335693 23.04727554321289 C 6.264990329742432 23.04727554321289 2.938842840194411e-07 17.88828468322754 2.938842840194411e-07 11.52400493621826 C 2.938842840194411e-07 5.158985137939453 6.264990329742432 4.910583356831921e-06 13.99298000335693 4.910583356831921e-06 C 21.72124099731445 4.910583356831921e-06 27.98623085021973 5.158985137939453 27.98623085021973 11.52400493621826 C 27.98623085021973 13.47943496704102 27.39512062072754 15.32057476043701 26.35144996643066 16.93376541137695 L 28.01518058776855 22.66501426696777 L 22.06521034240723 20.93776512145996 C 19.78446960449219 22.2665958404541 16.99961090087891 23.04727554321289 13.99298000335693 23.04727554321289 Z" stroke="none" fill="#fff"/>
  </g>
</svg>
