<svg id="그룹_3298" data-name="그룹 3298" xmlns="http://www.w3.org/2000/svg" width="25.695" height="31.577" viewBox="0 0 25.695 31.577">
  <path id="패스_27" data-name="패스 27" d="M334.921,207.9c0-.66,0-1.256,0-1.852a2.04,2.04,0,0,1,2.089-2.069,28.388,28.388,0,0,1,3.537.1,3.976,3.976,0,0,1,3.24,3.882c-.052,1.281-.01,2.566-.01,3.894.179.013.326.032.472.032,1.148,0,2.3,0,3.445.005a.913.913,0,0,1,1.014,1.018q.009,2.854,0,5.707c0,.805-.338,1.142-1.163,1.149-1.028.009-2.057,0-3.085,0h-.686c0,.23,0,.412,0,.594q0,5.168,0,10.335a4.794,4.794,0,0,1-.555,2.87h7.428V209.909h-.563c-1.371,0-2.742.006-4.113,0-.752,0-1.181-.374-1.186-.988,0-.634.445-1.017,1.213-1.019,1.508,0,3.017-.006,4.525,0a2.12,2.12,0,0,1,2.163,2.141q.01,11.672,0,23.344a2.088,2.088,0,0,1-2.178,2.159q-11.132,0-22.264,0c-.877,0-1.247-.366-1.247-1.245q0-12.572,0-25.144c0-.868.384-1.256,1.254-1.258C330.452,207.9,332.645,207.9,334.921,207.9Zm-5.9,2.035V233.59h1.169q4.78,0,9.56,0a1.8,1.8,0,0,0,2.031-1.486,1.9,1.9,0,0,0-2.005-2.481c-.856-.017-1.717-.058-2.569.009a2.213,2.213,0,0,1-2.31-2.29c.051-5.585.023-11.17.024-16.756v-.65Zm12.763,18.233c.009-.188.018-.291.018-.393q0-9.919,0-19.838a2.909,2.909,0,0,0-.042-.511,1.438,1.438,0,0,0-1.172-1.338c-1.211-.142-2.438-.14-3.669-.2v21.694C338.54,227.767,340.208,227.281,341.784,228.167Zm4.942-14.283h-2.91v3.852h2.91Z" transform="translate(-327.003 -203.971)" fill="#fff"/>
  <path id="패스_28" data-name="패스 28" d="M504.259,453.649v1.945h-3.845v-1.945Z" transform="translate(-482.579 -427.97)" fill="#fff"/>
  <path id="패스_29" data-name="패스 29" d="M500.15,369.215v-1.9h3.866v1.9Z" transform="translate(-482.342 -350.516)" fill="#fff"/>
  <path id="패스_30" data-name="패스 30" d="M504.076,398.231h-3.859v-1.9h3.859Z" transform="translate(-482.403 -376.551)" fill="#fff"/>
  <path id="패스_31" data-name="패스 31" d="M504.181,425.179v1.9h-3.865v-1.9Z" transform="translate(-482.491 -402.428)" fill="#fff"/>
</svg>
