<svg xmlns="http://www.w3.org/2000/svg" width="36.985" height="27.427" viewBox="0 0 36.985 27.427">
  <g id="그룹_6478" data-name="그룹 6478" transform="translate(295.768 -150.772)">
    <path id="패스_4847" data-name="패스 4847" d="M-258.789,152.058c0-.946-.362-1.286-1.317-1.286H-268.7q-9.512,0-19.024,0c-.865,0-1.2.331-1.2,1.178-.008.721-.023,1.443,0,2.163.014.381-.081.517-.489.506-1.1-.03-2.205-.013-3.308-.011a2.729,2.729,0,0,0-3.049,3.067q0,7.953,0,15.906a4.259,4.259,0,0,0,4.592,4.611q6.935.013,13.87,0,7.03,0,14.061,0a4.248,4.248,0,0,0,4.447-4.379Q-258.768,162.938-258.789,152.058Zm-31.083,4.587a1.167,1.167,0,0,0,.317,0c.479-.073.65.086.643.606-.03,2.246-.012,4.493-.012,6.74,0,1.4-.028,2.8.014,4.2.017.56-.3.5-.636.482s-.773.175-.76-.5c.036-1.864.012-3.73.012-5.6h-.007c0-1.823.014-3.646-.012-5.468C-290.318,156.735-290.233,156.6-289.872,156.645Zm.9,17.564a2.206,2.206,0,0,1-2.586,1.96,2.181,2.181,0,0,1-2.179-2.264c-.028-2.417-.011-4.835-.012-7.253q0-.445,0-.891,0-4.072,0-8.144c0-.414,0-.832.526-.951.6-.136.9.142.9.862.008,2.863,0,5.726.005,8.589,0,1.1-.008,2.206,0,3.308.006.9.344,1.237,1.225,1.249.594.008,1.188,0,1.781,0,.205,0,.382.006.378.29C-288.937,172.048-288.856,173.138-288.969,174.208Zm28.161-.624a2.306,2.306,0,0,1-2.632,2.6q-6.9.008-13.809,0l-9.545,0h-.748a6.172,6.172,0,0,0,.623-3.253c-.005-6.491.005-12.981-.016-19.472,0-.561.138-.7.7-.7q12.409.028,24.817,0c.521,0,.622.165.621.647Q-260.819,163.5-260.807,173.585Z" transform="translate(0)" fill="#fff"/>
    <path id="패스_4849" data-name="패스 4849" d="M-131.589,199.972c.079.326.226.472.565.431.307-.037.66.135.784-.385.208-.873.5-1.726.754-2.587a14.8,14.8,0,0,1,.709,2.416c.081.37.2.6.652.565.387-.031.7.033.823-.512.362-1.564.808-3.108,1.212-4.661.046-.178.323-.49-.105-.5-.309-.009-.783-.282-.911.345-.206,1.014-.451,2.02-.68,3.029l-.122.018c-.2-.88-.414-1.758-.6-2.641-.2-.9-.339-.982-1.223-.681-.183.063-.214.14-.214.312a15.686,15.686,0,0,1-.673,3.212c-.225-.989-.422-1.81-.6-2.637-.221-1.043-.212-1.032-1.264-.988-.314.013-.4.082-.32.405Q-132.177,197.537-131.589,199.972Z" transform="translate(-142.194 -38.291)" fill="#fff"/>
    <path id="패스_4850" data-name="패스 4850" d="M-200.732,200.591c.439.012.514-.138.494-.551-.043-.887-.013-1.778-.013-2.812.138.217.2.3.247.391.491.865,1.008,1.718,1.461,2.6.275.538.725.376,1.1.329s.167-.415.169-.632c.019-1.527-.013-3.054.031-4.58.018-.617-.375-.4-.666-.444-.348-.048-.47.055-.449.449.045.844.014,1.692.014,2.722-.593-1.044-1.121-1.932-1.606-2.844-.3-.559-.787-.32-1.18-.3-.438.019-.2.437-.2.662-.022,1.484.021,2.97-.031,4.453C-201.377,200.589-201.138,200.58-200.732,200.591Z" transform="translate(-82.364 -38.47)" fill="#fff"/>
    <path id="패스_4851" data-name="패스 4851" d="M-73.217,196.47c-.306-.143-.612-.288-.911-.445-.277-.145-.522-.343-.388-.7.124-.329.429-.374.742-.354a3.485,3.485,0,0,1,1.1.438c.062-1.224-.263-1.512-1.406-1.323a1.9,1.9,0,0,0-1.781,1.539c-.127.826.227,1.339,1.286,1.869.227.113.455.224.673.353a.577.577,0,0,1,.329.685.65.65,0,0,1-.611.472,1.938,1.938,0,0,1-1.2-.324c-.169-.1-.287-.322-.551-.249,0,.3.013.6,0,.893a.365.365,0,0,0,.3.415,3.384,3.384,0,0,0,2.238.055,1.8,1.8,0,0,0,1.243-1.678A1.632,1.632,0,0,0-73.217,196.47Z" transform="translate(-191.845 -37.757)" fill="#fff"/>
    <path id="패스_4852" data-name="패스 4852" d="M-159.531,200.8c.522,0,.275-.416.322-.661.057-.3-.118-.346-.376-.322-.442.042-.886.064-1.33.08-.158.006-.39.055-.408-.18a2.935,2.935,0,0,1,.026-1.19c.126-.333.565-.094.862-.139a1.314,1.314,0,0,1,.254,0c.17.008.279-.04.289-.24.019-.413.087-.772-.58-.7-.89.091-.865.032-.9-.729-.024-.565.149-.821.74-.723.27.045.55.028.82.069s.522.09.494-.322c-.02-.3.1-.652-.435-.633-.867.031-1.736.027-2.6,0-.393-.012-.441.147-.429.488.028.782.009,1.565.009,2.348h0c0,.8.006,1.608,0,2.412,0,.248-.038.455.33.449C-161.479,200.79-160.5,200.807-159.531,200.8Z" transform="translate(-116.054 -38.693)" fill="#fff"/>
    <path id="패스_4853" data-name="패스 4853" d="M-199.808,275.079c1.316-.009,2.632,0,3.948,0,1.277,0,2.554,0,3.832,0,.612,0,1.1-.167,1.1-.883s-.478-.9-1.09-.9q-3.889,0-7.779,0c-.642,0-1.218.185-1.18.948C-200.943,274.912-200.413,275.083-199.808,275.079Z" transform="translate(-82.723 -107.52)" fill="#fff"/>
    <path id="패스_4854" data-name="패스 4854" d="M-199.781,289.928q3.892,0,7.784-.005c.607,0,1.087-.208,1.081-.919-.006-.727-.508-.874-1.111-.873q-1.975,0-3.95,0c-1.278,0-2.556,0-3.834,0-.6,0-1.143.137-1.156.837C-200.981,289.714-200.429,289.927-199.781,289.928Z" transform="translate(-82.731 -117.813)" fill="#fff"/>
    <path id="패스_4862" data-name="패스 4862" d="M-144.4,275.088c.773-.008,1.547,0,2.32,0v.006c.773,0,1.547-.013,2.32,0,.645.014,1.1-.279,1.107-.909.01-.586-.445-.87-1.02-.873-1.585-.008-3.171-.01-4.756,0-.578,0-1.005.292-.984.9A.876.876,0,0,0-144.4,275.088Z" transform="translate(-125.35 -107.534)" fill="#fff"/>
    <path id="패스_4863" data-name="패스 4863" d="M-144.634,289.908c1.7.048,3.4.045,5.1.006a.847.847,0,0,0,.855-.919.85.85,0,0,0-.933-.833c-.811-.008-1.623,0-2.434,0s-1.623,0-2.434,0a.866.866,0,0,0-.963.805A.818.818,0,0,0-144.634,289.908Z" transform="translate(-125.32 -117.832)" fill="#fff"/>
  </g>
</svg>
